<mxfile host="65bd71144e">
    <diagram id="asn0GsyuBkOswHO3EfH7" name="ER Diagram">
        <mxGraphModel dx="1078" dy="586" grid="1" gridSize="10" guides="1" tooltips="1" connect="1" arrows="1" fold="1" page="1" pageScale="1" pageWidth="850" pageHeight="1100" math="0" shadow="0">
            <root>
                <mxCell id="0"/>
                <mxCell id="1" parent="0"/>
                <mxCell id="4" value="" style="group;fontStyle=0;" parent="1" vertex="1" connectable="0">
                    <mxGeometry x="63" y="39" width="120" height="90" as="geometry"/>
                </mxCell>
                <mxCell id="2" value="&lt;div&gt;id&amp;nbsp;ðŸ”‘&lt;/div&gt;&lt;div&gt;customer_id&lt;/div&gt;&lt;div&gt;&lt;span style=&quot;background-color: initial;&quot;&gt;description&lt;/span&gt;&lt;/div&gt;" style="rounded=1;whiteSpace=wrap;html=1;" parent="4" vertex="1">
                    <mxGeometry y="30" width="120" height="60" as="geometry"/>
                </mxCell>
                <mxCell id="3" value="&lt;font color=&quot;#ff9933&quot;&gt;assessment&lt;/font&gt;" style="text;html=1;strokeColor=none;fillColor=none;align=center;verticalAlign=middle;whiteSpace=wrap;rounded=0;fontStyle=1" parent="4" vertex="1">
                    <mxGeometry x="30" width="60" height="30" as="geometry"/>
                </mxCell>
                <mxCell id="5" value="" style="group" parent="1" vertex="1" connectable="0">
                    <mxGeometry x="371" y="39" width="120" height="90" as="geometry"/>
                </mxCell>
                <mxCell id="6" value="&lt;div&gt;id&amp;nbsp;ðŸ”‘&lt;/div&gt;&lt;div&gt;name&lt;/div&gt;" style="rounded=1;whiteSpace=wrap;html=1;" parent="5" vertex="1">
                    <mxGeometry y="30" width="120" height="60" as="geometry"/>
                </mxCell>
                <mxCell id="7" value="&lt;font color=&quot;#ff9933&quot;&gt;customer&lt;/font&gt;" style="text;html=1;strokeColor=none;fillColor=none;align=center;verticalAlign=middle;whiteSpace=wrap;rounded=0;fontStyle=1" parent="5" vertex="1">
                    <mxGeometry x="30" width="60" height="30" as="geometry"/>
                </mxCell>
                <mxCell id="9" value="" style="group;labelBackgroundColor=none;" parent="1" vertex="1" connectable="0">
                    <mxGeometry x="63" y="162" width="120" height="109" as="geometry"/>
                </mxCell>
                <mxCell id="10" value="&lt;div&gt;id&amp;nbsp;ðŸ”‘&lt;/div&gt;&lt;div&gt;&lt;div&gt;assessment_id&lt;/div&gt;&lt;div&gt;question_id&amp;nbsp;&lt;/div&gt;&lt;div&gt;order&lt;/div&gt;&lt;/div&gt;" style="rounded=1;whiteSpace=wrap;html=1;align=center;verticalAlign=top;labelBackgroundColor=default;" parent="9" vertex="1">
                    <mxGeometry y="36.33333333333333" width="120" height="72.66666666666666" as="geometry"/>
                </mxCell>
                <mxCell id="11" value="&lt;font color=&quot;#ff9933&quot;&gt;assessment_question&lt;/font&gt;" style="text;html=1;strokeColor=none;fillColor=none;align=center;verticalAlign=middle;whiteSpace=wrap;rounded=0;fontStyle=1" parent="9" vertex="1">
                    <mxGeometry x="30" width="60" height="36.33333333333333" as="geometry"/>
                </mxCell>
                <mxCell id="20" value="" style="group" parent="1" vertex="1" connectable="0">
                    <mxGeometry x="371" y="174" width="120" height="90" as="geometry"/>
                </mxCell>
                <mxCell id="21" value="&lt;div&gt;id&amp;nbsp;ðŸ”‘&lt;/div&gt;&lt;div&gt;&lt;div&gt;description&lt;/div&gt;&lt;div&gt;customer_id&lt;/div&gt;&lt;/div&gt;" style="rounded=1;whiteSpace=wrap;html=1;" parent="20" vertex="1">
                    <mxGeometry y="30" width="120" height="60" as="geometry"/>
                </mxCell>
                <mxCell id="22" value="&lt;font color=&quot;#ff9933&quot;&gt;question&lt;/font&gt;" style="text;html=1;strokeColor=none;fillColor=none;align=center;verticalAlign=middle;whiteSpace=wrap;rounded=0;fontStyle=1" parent="20" vertex="1">
                    <mxGeometry x="30" width="60" height="30" as="geometry"/>
                </mxCell>
                <mxCell id="26" value="" style="edgeStyle=none;html=1;exitX=1;exitY=0.5;exitDx=0;exitDy=0;entryX=0;entryY=0.5;entryDx=0;entryDy=0;" parent="1" source="10" target="21" edge="1">
                    <mxGeometry relative="1" as="geometry"/>
                </mxCell>
                <mxCell id="57" value="&lt;font color=&quot;#3399ff&quot;&gt;question&lt;/font&gt;" style="edgeLabel;html=1;align=center;verticalAlign=middle;resizable=0;points=[];" parent="26" vertex="1" connectable="0">
                    <mxGeometry x="-0.3623" relative="1" as="geometry">
                        <mxPoint x="28" y="-1" as="offset"/>
                    </mxGeometry>
                </mxCell>
                <mxCell id="35" value="" style="group;labelBackgroundColor=none;align=center;" parent="1" vertex="1" connectable="0">
                    <mxGeometry x="189" y="289" width="190" height="149" as="geometry"/>
                </mxCell>
                <mxCell id="36" value="&lt;div&gt;id&amp;nbsp;ðŸ”‘&lt;/div&gt;&lt;div&gt;&lt;div&gt;assessment_question_id&lt;/div&gt;&lt;div&gt;answer&lt;/div&gt;&lt;div&gt;comment&lt;/div&gt;&lt;/div&gt;" style="rounded=1;whiteSpace=wrap;html=1;align=center;verticalAlign=top;labelBackgroundColor=default;" parent="35" vertex="1">
                    <mxGeometry x="20" y="56.33333333333333" width="150" height="72.66666666666666" as="geometry"/>
                </mxCell>
                <mxCell id="37" value="&lt;b&gt;&lt;font color=&quot;#ff9933&quot;&gt;assessment_question_answer&lt;/font&gt;&lt;/b&gt;" style="text;html=1;strokeColor=none;fillColor=none;align=center;verticalAlign=middle;whiteSpace=wrap;rounded=0;" parent="35" vertex="1">
                    <mxGeometry x="57.5" y="20" width="75" height="36.33333333333333" as="geometry"/>
                </mxCell>
                <mxCell id="38" value="" style="group;verticalAlign=top;" parent="1" vertex="1" connectable="0">
                    <mxGeometry x="601" y="173" width="120" height="90" as="geometry"/>
                </mxCell>
                <mxCell id="39" value="&lt;div&gt;id&amp;nbsp;ðŸ”‘&lt;/div&gt;&lt;div&gt;&lt;div&gt;question_id&lt;/div&gt;&lt;div&gt;&lt;span style=&quot;background-color: initial;&quot;&gt;description&lt;/span&gt;&lt;/div&gt;&lt;/div&gt;" style="rounded=1;whiteSpace=wrap;html=1;" parent="38" vertex="1">
                    <mxGeometry y="30" width="120" height="60" as="geometry"/>
                </mxCell>
                <mxCell id="40" value="&lt;font color=&quot;#ff9933&quot;&gt;question_option&lt;/font&gt;" style="text;html=1;strokeColor=none;fillColor=none;align=center;verticalAlign=middle;whiteSpace=wrap;rounded=0;fontStyle=1" parent="38" vertex="1">
                    <mxGeometry x="30" width="60" height="30" as="geometry"/>
                </mxCell>
                <mxCell id="44" style="edgeStyle=none;html=1;exitX=0.5;exitY=1;exitDx=0;exitDy=0;entryX=0.5;entryY=1;entryDx=0;entryDy=0;" parent="1" source="39" target="21" edge="1">
                    <mxGeometry relative="1" as="geometry">
                        <Array as="points">
                            <mxPoint x="661" y="289"/>
                            <mxPoint x="541" y="289"/>
                            <mxPoint x="431" y="289"/>
                        </Array>
                    </mxGeometry>
                </mxCell>
                <mxCell id="56" value="&lt;font color=&quot;#3399ff&quot;&gt;question&lt;/font&gt;" style="edgeLabel;html=1;align=center;verticalAlign=middle;resizable=0;points=[];" parent="44" vertex="1" connectable="0">
                    <mxGeometry x="-0.0634" y="1" relative="1" as="geometry">
                        <mxPoint y="-1" as="offset"/>
                    </mxGeometry>
                </mxCell>
                <mxCell id="47" style="edgeStyle=none;html=1;exitX=1;exitY=0.5;exitDx=0;exitDy=0;entryX=1;entryY=0.5;entryDx=0;entryDy=0;" parent="1" source="21" target="6" edge="1">
                    <mxGeometry relative="1" as="geometry">
                        <Array as="points">
                            <mxPoint x="521" y="233"/>
                            <mxPoint x="521" y="99"/>
                        </Array>
                    </mxGeometry>
                </mxCell>
                <mxCell id="55" value="&lt;font color=&quot;#3399ff&quot;&gt;customer&lt;/font&gt;" style="edgeLabel;html=1;align=center;verticalAlign=middle;resizable=0;points=[];" parent="47" vertex="1" connectable="0">
                    <mxGeometry x="-0.0131" y="-2" relative="1" as="geometry">
                        <mxPoint x="-2" as="offset"/>
                    </mxGeometry>
                </mxCell>
                <mxCell id="51" value="&lt;font color=&quot;#3399ff&quot;&gt;assessment&lt;/font&gt;" style="edgeStyle=none;html=1;exitX=0;exitY=0.5;exitDx=0;exitDy=0;entryX=0;entryY=0.5;entryDx=0;entryDy=0;" parent="1" source="10" target="2" edge="1">
                    <mxGeometry relative="1" as="geometry">
                        <Array as="points">
                            <mxPoint x="41" y="235"/>
                            <mxPoint x="41" y="99"/>
                        </Array>
                    </mxGeometry>
                </mxCell>
                <mxCell id="53" style="edgeStyle=none;html=1;exitX=1;exitY=0.5;exitDx=0;exitDy=0;entryX=0;entryY=0.5;entryDx=0;entryDy=0;" parent="1" source="2" target="6" edge="1">
                    <mxGeometry relative="1" as="geometry"/>
                </mxCell>
                <mxCell id="54" value="&lt;font color=&quot;#3399ff&quot;&gt;customer&lt;/font&gt;" style="edgeLabel;html=1;align=center;verticalAlign=middle;resizable=0;points=[];" parent="53" vertex="1" connectable="0">
                    <mxGeometry x="-0.1156" relative="1" as="geometry">
                        <mxPoint as="offset"/>
                    </mxGeometry>
                </mxCell>
                <mxCell id="59" style="edgeStyle=none;html=1;exitX=0;exitY=0.5;exitDx=0;exitDy=0;entryX=0.5;entryY=1;entryDx=0;entryDy=0;" parent="1" source="36" target="10" edge="1">
                    <mxGeometry relative="1" as="geometry">
                        <Array as="points">
                            <mxPoint x="123" y="382"/>
                        </Array>
                    </mxGeometry>
                </mxCell>
                <mxCell id="60" value="&lt;font color=&quot;#3399ff&quot;&gt;assessment_question&lt;/font&gt;" style="edgeLabel;html=1;align=center;verticalAlign=middle;resizable=0;points=[];" parent="59" vertex="1" connectable="0">
                    <mxGeometry x="0.2907" y="-1" relative="1" as="geometry">
                        <mxPoint as="offset"/>
                    </mxGeometry>
                </mxCell>
                <mxCell id="62" value="" style="group;labelBackgroundColor=none;" parent="1" vertex="1" connectable="0">
                    <mxGeometry x="530" y="295" width="242" height="139" as="geometry"/>
                </mxCell>
                <mxCell id="63" value="&lt;div&gt;id&amp;nbsp;ðŸ”‘&lt;/div&gt;&lt;div&gt;&lt;div&gt;assessment_question_answer_id&lt;/div&gt;&lt;div&gt;question_option_id&lt;/div&gt;&lt;/div&gt;&lt;div&gt;&lt;br&gt;&lt;/div&gt;" style="rounded=1;whiteSpace=wrap;html=1;align=center;verticalAlign=top;labelBackgroundColor=default;" parent="62" vertex="1">
                    <mxGeometry x="25.47368421052632" y="52.552572706935116" width="191.05263157894737" height="67.78970917225949" as="geometry"/>
                </mxCell>
                <mxCell id="64" value="&lt;font color=&quot;#ff9933&quot;&gt;assessment_question_answer_option&lt;/font&gt;" style="text;html=1;strokeColor=none;fillColor=none;align=center;verticalAlign=middle;whiteSpace=wrap;rounded=0;fontStyle=1" parent="62" vertex="1">
                    <mxGeometry x="73.24" y="18.65771812080537" width="96.76" height="33.89174496644295" as="geometry"/>
                </mxCell>
                <mxCell id="65" style="edgeStyle=none;html=1;exitX=0;exitY=0.5;exitDx=0;exitDy=0;entryX=1;entryY=0.5;entryDx=0;entryDy=0;" parent="1" source="63" target="36" edge="1">
                    <mxGeometry relative="1" as="geometry"/>
                </mxCell>
                <mxCell id="66" value="&lt;span style=&quot;font-size: 12px; background-color: rgb(42, 37, 47);&quot;&gt;&lt;font color=&quot;#3399ff&quot;&gt;assessment_question_answer&lt;/font&gt;&lt;/span&gt;" style="edgeLabel;html=1;align=center;verticalAlign=middle;resizable=0;points=[];" parent="65" vertex="1" connectable="0">
                    <mxGeometry x="0.1863" y="2" relative="1" as="geometry">
                        <mxPoint x="26" y="-2" as="offset"/>
                    </mxGeometry>
                </mxCell>
                <mxCell id="67" value="&lt;span style=&quot;font-size: 12px; background-color: rgb(42, 37, 47);&quot;&gt;&lt;font color=&quot;#3399ff&quot;&gt;question_option&lt;/font&gt;&lt;/span&gt;" style="edgeStyle=none;html=1;exitX=1;exitY=0.5;exitDx=0;exitDy=0;entryX=1;entryY=0.5;entryDx=0;entryDy=0;" parent="1" source="63" target="39" edge="1">
                    <mxGeometry relative="1" as="geometry">
                        <Array as="points">
                            <mxPoint x="781" y="382"/>
                            <mxPoint x="781" y="233"/>
                        </Array>
                    </mxGeometry>
                </mxCell>
            </root>
        </mxGraphModel>
    </diagram>
</mxfile>